<?xml version="1.0" ?><svg width="160px" height="160px" viewBox="0 0 160 160" data-name="Layer 1" id="Layer_1" xmlns="http://www.w3.org/2000/svg"><title/><path d="M110.22,117.75h-80a10,10,0,0,0,0,20h80a10,10,0,0,0,0-20Z"/><path d="M177.22,125.75a9.67,9.67,0,0,0-14,0l-8,7.5V42.75a10,10,0,0,0-20,0v113.5a8.29,8.29,0,0,0,3,8,9.67,9.67,0,0,0,14,0l24.5-24.5a10.13,10.13,0,0,0,.5-14Z"/><path d="M110.22,37.75h-80a10,10,0,0,0,0,20h80a10,10,0,0,0,0-20Z"/><path d="M30.22,97.75h70a10,10,0,0,0,0-20h-70a10,10,0,0,0,0,20Z"/></svg>